<svg xmlns="http://www.w3.org/2000/svg" width="660" height="960" viewBox="0 0 660 960" version="1.1"><title>Asteroid ISRU</title><defs><style>text{font-family:"HelveticaNeue","Helvetica Neue";fill:#000;}#header text{fill:#fff;}#steps text{font-size:16px;}rect,polygon,circle,path{stroke:#000;stroke-linecap:round;stroke-linejoin:round;}#steps rect,#steps .separator polygon{fill:#7D92B4;}#steps .tank circle{fill:#3DA5F2;}#lines path{}#lines .byproduct path{stroke-dasharray:4px;}#lines polygon{fill:#000;}#lines text{font-size:13px;}#lines rect{stroke-width:0.5px;fill:#EFEFEF;height:18px;}#background rect{fill-opacity:0.7;}#background text{font-family:"HelveticaNeue-Bold","Helvetica Neue";font-size:18px;font-weight:bold;}</style></defs><g stroke="none" stroke-width="1" fill="none" fill-rule="evenodd"><g transform="translate(0, 120)" id="background"><rect fill="#68BC36" x="0" y="540" width="660" height="240"/><text><tspan x="5" y="559.5">Liquify</tspan></text><rect fill="#FF914D" x="0" y="300" width="660" height="240"/><text><tspan x="5" y="319.5">Convert</tspan></text><rect fill="#9662D0" x="0" y="0" width="660" height="300"/><text><tspan x="5" y="19.5">Extract</tspan></text></g><g transform="translate(60, 150)" id="steps"><g transform="translate(240, 720)" class="tank"><circle cx="30" cy="30" r="30"/><text><tspan x="8.5" y="36">Buffer</tspan></text></g><g transform="translate(420, 600)"><rect x="0" y="0" width="120" height="60" rx="15"/><text><tspan x="7.5" y="36">Cryodistillation</tspan></text></g><g transform="translate(210, 600)"><rect x="0" y="0" width="120" height="60" rx="15"/><text><tspan x="21.3" y="36">Cryocooler</tspan></text></g><g transform="translate(0, 600)"><rect x="0" y="0" width="120" height="60" rx="15"/><text><tspan x="30.1" y="36">Radiator</tspan></text></g><g transform="translate(330, 480)" class="tank"><circle cx="30" cy="30" r="30"/><text><tspan x="21.5" y="36">O&#8322;</tspan></text></g><g transform="translate(150, 480)" class="tank"><circle cx="30" cy="30" r="30"/><text><tspan x="15.5" y="36">CH&#8324;</tspan></text></g><g transform="translate(420, 360)"><rect x="0" y="0" width="120" height="60" rx="15"/><text><tspan x="20.1" y="36">Electrolysis</tspan></text></g><g transform="translate(210, 360)" class="separator"><polygon points="60 0 120 30 60 60 0 30"/><text><tspan x="26.2" y="36">Separator</tspan></text></g><g transform="translate(0, 360)"><rect x="0" y="0" width="120" height="60" rx="15"/><text><tspan x="30.2" y="27">Sabatier</tspan><tspan x="31.9" y="45.4">Reactor</tspan></text></g><g transform="translate(330, 240)" class="tank"><circle cx="30" cy="30" r="30"/><text><tspan x="15.2" y="36">H&#8322;O</tspan></text></g><g transform="translate(150, 240)" class="tank"><circle cx="30" cy="30" r="30"/><text><tspan x="15.2" y="36">CO&#8322;</tspan></text></g><g transform="translate(210, 120)" class="separator"><polygon points="60 0 120 30 60 60 0 30"/><text><tspan x="26.2" y="36">Separator</tspan></text></g><g transform="translate(300, 0)"><rect x="0" y="0" width="120" height="60" rx="15"/><text><tspan x="31.8" y="27">Heater /</tspan><tspan x="21.2" y="45.4">Condenser</tspan></text></g><g transform="translate(120, 0)"><rect x="0" y="0" width="120" height="60" rx="15"/><text><tspan x="46.4" y="36">Drill</tspan></text></g></g><g transform="translate(-2, 171)" id="lines"><g transform="translate(580, 639)"><path d="M2 0L78 57"/><g transform="translate(79.018350, 57.956722) rotate(40) translate(-79.018350, -57.956722) translate(74.518350, 53.956722)"><polygon points="9 4 0 0 0 8"/></g><rect x="0" y="15" width="68" rx="9"/><text><tspan x="5.5" y="29">Impurities</tspan></text></g><g transform="translate(293, 639)"><path d="M39 0L39 50"/><g transform="translate(39, 54.500000) rotate(90) translate(-39, -54.500000) translate(34.500000, 50.500000)"><polygon points="9 4 0 0 0 8"/></g><rect x="0" y="15" width="78" rx="9"/><text><tspan x="5.3" y="29">LCH&#8324; / LOX</tspan></text></g><g transform="translate(0, 639)"><path d="M82 0L7 57"/><g transform="translate(6.018350, 57.956722) rotate(140) translate(-6.018350, -57.956722) translate(1.518350, 53.956722)"><polygon points="9 4 0 0 0 8"/></g><rect x="23" y="15" width="55" rx="9"/><text><tspan x="28.2" y="29">Infrared</tspan></text></g><g transform="translate(393, 605)"><path d="M81 4L7 4"/><g transform="translate(4.500000, 4) rotate(180) translate(-4.500000, -4) "><polygon points="9 4 0 0 0 8"/></g><g transform="translate(79, 0)"><polygon points="9 4 0 0 0 8"/></g></g><g transform="translate(183, 600)" class="byproduct"><path d="M89 8.5L6 8.5"/><g transform="translate(4.500000, 9) rotate(180) translate(-4.500000, -9) translate(0, 5)"><polygon points="9 4 0 0 0 8"/></g><rect x="34" y="0" width="38" rx="9"/><text><tspan x="39.3" y="14">Heat</tspan></text></g><g transform="translate(351, 513)"><path d="M53 0L6 62"/><g transform="translate(5.857702, 61.980490) rotate(125) translate(-5.857702, -61.980490) translate(1.357702, 57.980490)"><polygon points="9 4 0 0 0 8"/></g></g><g transform="translate(260, 513)"><path d="M0 0L47 62"/><g transform="translate(46.857702, 61.980490) rotate(55) translate(-46.857702, -61.980490) translate(42.357702, 57.980490)"><polygon points="9 4 0 0 0 8"/></g></g><g transform="translate(440, 399)"><path d="M72 0L9 63"/><g transform="translate(6.010408, 66.010408) rotate(135) translate(-6.010408, -66.010408) translate(1.510408, 62.010408)"><polygon points="9 4 0 0 0 8"/></g><rect x="32" y="19" width="25" rx="9"/><text><tspan x="37.2" y="33">O&#8322;</tspan></text></g><g transform="translate(152, 399)"><path d="M0 0L63 63"/><g transform="translate(66.010408, 66.010408) rotate(45) translate(-66.010408, -66.010408) translate(61.510408, 62.010408)"><polygon points="9 4 0 0 0 8"/></g><rect x="11" y="19" width="34" rx="9"/><text><tspan x="16.2" y="33">CH&#8324;</tspan></text></g><g transform="translate(103, 399)" class="byproduct"><path d="M19 0L19 170"/><g transform="translate(19, 174.500000) rotate(90) translate(-19, -174.500000) translate(14.500000, 170.500000)"><polygon points="9 4 0 0 0 8"/></g><rect x="0" y="63" width="38" rx="9"/><text><tspan x="5.3" y="77">Heat</tspan></text></g><g transform="translate(392, 360)"><path d="M90 9L9 9"/><g transform="translate(4.500000, 9) rotate(180) translate(-4.500000, -9) translate(0, 5)"><polygon points="9 4 0 0 0 8"/></g><rect x="22" y="0" width="64" rx="9"/><text><tspan x="27.4" y="14">H&#8322; + H&#8322;O</tspan></text></g><g transform="translate(183, 360)"><path d="M89 9L9 9"/><g transform="translate(4.500000, 9) rotate(180) translate(-4.500000, -9) translate(0, 5)"><polygon points="9 4 0 0 0 8"/></g><rect x="41" y="0" width="25" rx="9"/><text><tspan x="46.4" y="14">H&#8322;</tspan></text></g><g transform="translate(443, 270)"><path d="M0 0L62 62"/><g transform="translate(65.010408, 65.010408) rotate(45) translate(-65.010408, -65.010408) translate(60.510408, 61.010408)"><polygon points="9 4 0 0 0 8"/></g></g><g transform="translate(362, 274)" class="byproduct"><path d="M0 80L40 10"/><g transform="translate(42.714102, 5.897114) rotate(300) translate(-42.714102, -5.897114) translate(38.214102, 1.897114)"><polygon points="9 4 0 0 0 8"/></g><rect x="1" y="39" width="35" rx="9"/><text><tspan x="6.5" y="53">H&#8322;O</tspan></text></g><g transform="translate(182, 257)" class="byproduct"><path d="M0 88L203 7"/><g transform="translate(207.596697, 5.297861) rotate(-20) translate(-207.596697, -5.297861) translate(203.096697, 1.297861)"><polygon points="9 4 0 0 0 8"/></g><rect x="68" y="45" width="35" rx="9"/><text><tspan x="73.5" y="59">H&#8322;O</tspan></text></g><g transform="translate(150, 270)"><path d="M71 0L7 64"/><g transform="translate(6.010408, 65.010408) rotate(135) translate(-6.010408, -65.010408) translate(1.510408, 61.010408)"><polygon points="9 4 0 0 0 8"/></g></g><g transform="translate(362, 144)"><path d="M0 0L40 70"/><g transform="translate(42.714102, 73.897114) rotate(60) translate(-42.714102, -73.897114) translate(38.214102, 69.897114)"><polygon points="9 4 0 0 0 8"/></g><rect x="1" y="23" width="35" rx="9"/><text><tspan x="6.5" y="37">H&#8322;O</tspan></text></g><g transform="translate(250, 144)"><path d="M52 0L12 70"/><g transform="translate(9.714102, 73.897114) rotate(120) translate(-9.714102, -73.897114) translate(5.214102, 69.897114)"><polygon points="9 4 0 0 0 8"/></g><rect x="0" y="23" width="69" rx="9"/><text><tspan x="5.3" y="37">CO + CO&#8322;</tspan></text></g><g transform="translate(341, 39)"><path d="M64 0L26 66"/><g transform="translate(23.714102, 69.897114) rotate(120) translate(-23.714102, -69.897114) translate(19.214102, 65.897114)"><polygon points="9 4 0 0 0 8"/></g><rect x="0" y="8" width="108" rx="9"/><text><tspan x="5.3" y="22">H&#8322;O + CO + CO&#8322;</tspan></text></g><g transform="translate(482, 0)"><path d="M0 9L170 9"/><g transform="translate(170, 5)"><polygon points="9 4 0 0 0 8"/></g><rect x="14" y="0" width="116" rx="9"/><text><tspan x="19.4" y="14">Depleted Minerals</tspan></text></g><g transform="translate(302, 5)"><path d="M0 4L50 4"/><g transform="translate(50, 0)"><polygon points="9 4 0 0 0 8"/></g></g><g transform="translate(2, 0)"><path d="M0 9L170 9"/><g transform="translate(170, 5)"><polygon points="9 4 0 0 0 8"/></g><rect x="42" y="0" width="60" rx="9"/><text><tspan x="47.4" y="14">Minerals</tspan></text></g></g><g transform="translate(120, 30)" id="header"><polygon fill="#353535" points="0 60 420 60 420 0 0 0"/><text font-family="HelveticaNeue-Bold, Helvetica Neue" font-size="36" font-weight="bold" fill="#FFFFFF"><tspan x="24.2" y="44">Propellant Production</tspan></text></g></g></svg>